<svg width="128" height="128" viewBox="0 0 128 128" fill="none" xmlns="http://www.w3.org/2000/svg">
<rect width="128" height="128" fill="white"/>
<path d="M28.4985 25.4588C26.4901 26.1798 25.0743 27.4908 23.9878 29.6866L23 31.7185L23.0659 64.3277L23.1646 96.937L24.0865 98.5756C25.1072 100.444 26.7864 101.918 28.5643 102.541C29.4862 102.869 37.059 102.967 64.1893 103H98.6619L100.407 102.082C102.382 101.066 104.127 99.0345 104.654 97.1664C105.115 95.495 105.115 32.505 104.654 30.8336C104.127 28.9655 102.382 26.9336 100.407 25.9176L98.6619 25H64.1893C36.2688 25.0328 29.5192 25.0983 28.4985 25.4588ZM100.111 29.8504L101.526 31.2269L101.625 34.8319L101.757 38.437H26.2925V35.1924C26.2925 31.5874 26.7535 30.4403 28.8936 29.0311L30.013 28.2773L98.7278 28.4412L100.111 29.8504ZM101.625 69.3748L101.526 96.7403L100.539 97.7563C98.5302 99.8538 100.967 99.7227 63.893 99.7227H30.013L28.8936 98.9689C28.3009 98.5756 27.4449 97.7235 27.0498 97.1336L26.2925 96.0193V42.042H101.691L101.625 69.3748Z" fill="#556068"/>
<path d="M30.1777 32.4067C29.7496 33.3244 30.013 34.0126 31.0008 34.6353C32.219 35.4218 33.5031 33.1933 32.5154 32.0134C31.8898 31.2597 30.6057 31.4563 30.1777 32.4067Z" fill="#556068"/>
<path d="M37.2236 31.9479C36.3676 32.8 37.1249 34.8319 38.3102 34.8319C39.0016 34.8319 39.7918 33.8815 39.7918 33.0622C39.7918 32.1445 39.1992 31.5546 38.3102 31.5546C37.9151 31.5546 37.4541 31.7185 37.2236 31.9479Z" fill="#556068"/>
<path d="M44.105 32.0134C43.5453 32.6689 43.7757 34.2092 44.4672 34.6025C45.3561 35.1924 46.7061 34.3731 46.7061 33.2588C46.7061 32.7672 46.5415 32.1773 46.311 31.9479C45.7842 31.4235 44.5659 31.4563 44.105 32.0134Z" fill="#556068"/>
<path d="M61.9504 52.8244C56.6495 54.7908 53.7521 59.0513 53.9825 64.5899C54.0813 66.6874 54.3118 67.5395 55.1349 69.1454L56.1556 71.1445L49.9657 77.3059C43.6111 83.6311 43.0185 84.4504 44.1379 85.5647C45.0598 86.4823 45.9488 85.8597 52.1387 79.7311L58.4274 73.4714L60.7322 74.5529C62.7735 75.5034 63.3003 75.6344 65.8026 75.6344C69.3915 75.6017 71.9596 74.5202 74.2315 72.1277C76.5362 69.6697 77.4581 67.3756 77.4581 64C77.4581 61.5092 77.3594 60.9849 76.4045 59.0513C74.429 54.9546 70.6756 52.4966 66.1319 52.3C64.2881 52.2017 63.2345 52.3328 61.9504 52.8244ZM68.5025 56.0034C71.8609 57.1176 74.3632 60.5588 74.3632 64C74.3632 68.4244 70.2475 72.521 65.8026 72.521C62.8065 72.521 59.2835 70.2597 57.9006 67.4739C56.9787 65.5731 57.0116 62.4269 57.9335 60.4933C59.8103 56.626 64.5186 54.6269 68.5025 56.0034Z" fill="#556068"/>
</svg>
